<svg xmlns="http://www.w3.org/2000/svg" viewBox="0 0 48 48">
  <circle cx="24" cy="24" r="24" fill="#25D366"/>
  <path fill="#fff" d="M24 10C16.27 10 10 16.27 10 24c0 2.49.67 4.82 1.83 6.83L10 38l7.39-1.79A13.93 13.93 0 0024 38c7.73 0 14-6.27 14-14S31.73 10 24 10zm7.18 19.36c-.3.84-1.76 1.61-2.42 1.67-.62.06-1.2.28-4.05-.84-3.4-1.35-5.58-4.84-5.75-5.07-.17-.22-1.37-1.83-1.37-3.49s.87-2.48 1.18-2.82c.3-.34.66-.42.88-.42l.63.01c.2 0 .47-.08.74.56.3.7 1.01 2.48 1.1 2.66.09.18.15.39.03.63-.12.24-.18.39-.36.6-.18.21-.38.47-.54.63-.18.18-.37.37-.16.73.21.36.95 1.57 2.05 2.54 1.41 1.25 2.6 1.64 2.97 1.82.36.18.57.15.78-.09.21-.24.9-1.05 1.14-1.41.24-.36.48-.3.81-.18.33.12 2.09 .99 2.45 1.17.36.18.6.27.69.42.09.14.09.84-.21 1.68z"/>
</svg>